<?xml version="1.0" standalone="no"?>
<!DOCTYPE svg PUBLIC "-//W3C//DTD SVG 20010904//EN"
 "http://www.w3.org/TR/2001/REC-SVG-20010904/DTD/svg10.dtd">
<svg version="1.0" xmlns="http://www.w3.org/2000/svg"
 width="512.000000pt" height="512.000000pt" viewBox="0 0 512.000000 512.000000"
 preserveAspectRatio="xMidYMid meet">
<metadata>
Created by potrace 1.14, written by Peter Selinger 2001-2017
</metadata>
<g transform="translate(0.000000,512.000000) scale(0.100000,-0.100000)"
fill="#000000" stroke="none">
<path d="M2933 5098 c-21 -24 -84 -107 -338 -443 -87 -115 -207 -273 -265
-350 -58 -77 -178 -234 -265 -350 -87 -115 -200 -264 -250 -330 -50 -66 -163
-214 -250 -330 -88 -115 -249 -329 -360 -475 -110 -146 -208 -277 -218 -292
-32 -51 -17 -116 35 -148 32 -19 59 -20 183 -5 22 2 67 7 100 10 33 3 74 8 90
10 17 2 60 7 95 10 36 3 81 7 100 10 19 2 58 7 85 10 192 19 346 35 390 41 64
7 323 34 398 40 77 7 73 13 52 -89 -8 -40 -53 -272 -100 -517 -47 -245 -100
-515 -116 -600 -17 -85 -41 -211 -54 -280 -13 -69 -53 -276 -89 -460 -36 -184
-67 -346 -70 -360 -2 -14 -10 -56 -17 -94 -13 -67 -12 -69 10 -87 44 -36 66
-24 113 61 26 46 264 456 598 1030 101 173 191 329 200 345 56 100 215 374
229 395 10 14 32 52 51 85 18 33 64 112 100 175 37 63 77 131 87 150 11 19 67
116 125 215 58 99 170 293 250 430 80 138 155 266 166 285 12 19 43 73 69 119
26 47 56 98 66 115 46 81 -15 171 -109 161 -60 -6 -136 -15 -164 -20 -14 -2
-45 -7 -70 -10 -48 -6 -115 -15 -142 -20 -9 -2 -45 -6 -79 -10 -35 -4 -66 -8
-69 -10 -3 -1 -32 -6 -65 -9 -33 -4 -71 -9 -85 -11 -14 -2 -43 -7 -65 -9 -51
-7 -112 -15 -150 -21 -16 -3 -52 -7 -80 -10 -27 -4 -61 -8 -75 -10 -14 -2 -47
-7 -75 -10 -27 -4 -62 -8 -76 -11 -123 -19 -116 -26 -95 86 8 41 17 86 19 100
8 43 20 104 23 123 2 10 5 26 8 35 3 9 7 33 10 52 3 19 7 44 10 55 3 17 24
129 43 225 4 23 54 285 67 355 4 17 9 46 12 65 4 19 7 40 9 45 2 12 16 83 21
110 11 59 37 193 40 210 3 11 7 36 10 55 3 19 7 42 10 50 3 8 8 32 11 53 9 68
-51 103 -94 55z"/>
</g>
</svg>
